<?xml version="1.0" encoding="utf-8"?>
<!-- Generator: Adobe Illustrator 21.0.2, SVG Export Plug-In . SVG Version: 6.00 Build 0)  -->
<svg version="1.1" id="Layer_1" xmlns="http://www.w3.org/2000/svg" xmlns:xlink="http://www.w3.org/1999/xlink" x="0px" y="0px"
	 viewBox="0 0 375.1 374.9" style="enable-background:new 0 0 375.1 374.9;" xml:space="preserve">
<style type="text/css">
	.st0{fill:#FFFFFF;}
</style>
<path class="st0" d="M354.2,166.6H208.4V20.8C208.4,9.3,199,0,187.5,0h0c-11.5,0-20.8,9.3-20.8,20.8v145.8H20.8c0,0,0,0,0,0
	C9.3,166.6,0,176,0,187.5v0c0,11.5,9.3,20.8,20.8,20.8h145.9v145.8c0,11.5,9.3,20.8,20.8,20.8h0c11.5,0,20.8-9.3,20.8-20.8V208.3
	h145.9c0,0,0,0,0,0c11.5,0,20.8-9.3,20.8-20.8v0c0,0,0,0,0,0C375.1,175.9,365.7,166.6,354.2,166.6z"/>
</svg>
