<svg xmlns="http://www.w3.org/2000/svg" width="144.969" height="183.969" viewBox="0 0 144.969 183.969">                                                                                                       
<defs>
    <style>
      .cls-1 {
        fill: none;
        stroke: #fff;
        stroke-width: 3px;
        fill-rule: evenodd;
      }
    </style>
  </defs>
  <path id="Shape_1_copy_2" data-name="Shape 1 copy 2" class="cls-1" d="M86.1,500s-37.077-20.34-36.9-36.532c0,0-9.88-21.747-10.949-25.365,0,0-4.453-5.511-5.7-21.358,0,0-6.769-9.3-8.55-17.914,0,0,8.729-9.3,15.676-2.756,0,0,7.126,2.239,16.389,28.938,0,0,2.138,3.1,4.275-6.89,0,0,13.538-58.564,12.113-69.588,0,0,3.529-31.176,17.246-29.454,0,0,7.693,7.751,2.706,30.832,0,0-5.34,44.548.894,50.06,0,0,.272-0.344,2.7-9.568a17.228,17.228,0,0,1,14.4-9.568s9.439-.718,15.5,19.372c0,0,1.247,2.584,2.137-2.756,0,0,7.462-6.725,13.866-2.7,0,0,9.292,2.7,8.223,22.68,0,0-2.241,3.309,4.988-1.378,0,0,12.638-.98,10.688,13.78,0.121,0-5.85,44.862-29.159,70.133" transform="translate(-22.5 -317.531)"/>
</svg>
