<?xml version="1.0" encoding="utf-8"?>
<!-- Generator: Adobe Illustrator 21.0.2, SVG Export Plug-In . SVG Version: 6.00 Build 0)  -->
<svg version="1.1" id="Layer_1" xmlns="http://www.w3.org/2000/svg" xmlns:xlink="http://www.w3.org/1999/xlink" x="0px" y="0px"
	 viewBox="0 0 143 209" style="enable-background:new 0 0 143 209;" xml:space="preserve">
<style type="text/css">
	.st0{fill:none;stroke:#FFFFFF;stroke-miterlimit:10;enable-background:new    ;}
	.st1{fill:none;stroke:#FFFFFF;stroke-width:3;}
</style>
<image style="overflow:visible;" width="143" height="209" xlink:href="8F393063.png" >
</image>
<path class="st0" d="z"/>
<path class="st1" d="M47.6,69.4C37.2,64,30.2,53.1,30.2,40.7c0-17.9,14.5-32.4,32.4-32.4S95,22.8,95,40.7c0,16.5-12.3,30-28.1,32.1"
	/>
<path id="Shape_1_copy_2" class="st1" d="M61.9,209c0,0-37-20.3-36.8-36.5c0,0-9.9-21.7-10.9-25.4c0,0-4.4-5.5-5.7-21.4
	c0,0-6.8-9.3-8.5-17.9c0,0,8.7-9.3,15.6-2.8c0,0,7.1,2.2,16.3,28.9c0,0,2.1,3.1,4.3-6.9c0,0,13.5-58.6,12.1-69.6
	c0,0,3.5-31.2,17.2-29.5c0,0,7.7,7.8,2.7,30.8c0,0-5.3,44.5,0.9,50.1c0,0,0.3-0.3,2.7-9.6c2.7-5.5,8.2-9.2,14.4-9.6
	c0,0,9.4-0.7,15.5,19.4c0,0,1.2,2.6,2.1-2.8c0,0,7.4-6.7,13.8-2.7c0,0,9.3,2.7,8.2,22.7c0,0-2.2,3.3,5-1.4c0,0,12.6-1,10.7,13.8
	c0.1,0-5.8,44.9-29.1,70.1"/>
</svg>
